<svg xmlns="http://www.w3.org/2000/svg" viewBox="0 0 240 240" role="img" aria-labelledby="title desc">
  <title id="title">OpsPilot icon</title>
  <desc id="desc">Default OpsPilot icon.</desc>
  <defs>
    <linearGradient id="opsBlue" x1="0%" x2="100%" y1="0%" y2="100%">
      <stop offset="0%" stop-color="#0A2B8F" />
      <stop offset="100%" stop-color="#13A3FF" />
    </linearGradient>
    <linearGradient id="opsGreen" x1="0%" x2="100%" y1="0%" y2="100%">
      <stop offset="0%" stop-color="#1CCF74" />
      <stop offset="100%" stop-color="#0FA957" />
    </linearGradient>
    <linearGradient id="opsOrange" x1="0%" x2="100%" y1="0%" y2="100%">
      <stop offset="0%" stop-color="#FFB027" />
      <stop offset="100%" stop-color="#FF6B1F" />
    </linearGradient>
  </defs>
  <path d="M120 28c31 0 61 10 86 29 10 8 11 23 1 31l-25 22c-8 7-20 7-28 0-21-18-44-27-68-27s-47 9-68 27c-8 7-20 7-28 0L-15 88c-10-8-9-23 1-31 25-19 55-29 86-29h48z" fill="#0A2B8F"/>
  <path d="M34 111c26-14 56-21 86-21s60 7 86 21l-21 19c-9 8-22 9-32 3-11-7-22-10-33-10s-22 3-33 10c-10 6-23 5-32-3l-21-19z" fill="#143C9D"/>
  <path d="M37 131h166c0 49-36 82-83 82s-83-33-83-82z" fill="#0B287C"/>
  <path d="M37 131h51l-27 55c-16-13-24-31-24-55z" fill="url(#opsGreen)"/>
  <path d="M203 131h-51l27 55c16-13 24-31 24-55z" fill="url(#opsOrange)"/>
  <path d="M136 114c16 0 29 13 29 29 0 14-10 26-24 29v17c0 10-8 18-18 18s-18-8-18-18v-22c0-20 16-36 36-36h-5z" fill="url(#opsBlue)"/>
  <circle cx="123" cy="168" r="8" fill="#0A2B8F"/>
  <path d="M17 108h29l-11 14H6z" fill="#6DD6FF" opacity=".55"/>
  <path d="M194 108h29l-11 14h-29z" fill="#A88CFF" opacity=".5"/>
</svg>
